<?xml version="1.0" encoding="UTF-8" standalone="no"?>
<!-- Created with Inkscape (http://www.inkscape.org/) -->

<svg
   width="71.83139mm"
   height="62.609116mm"
   viewBox="0 0 71.831388 62.609113"
   version="1.1"
   id="svg5"
   inkscape:version="1.2.2 (732a01da63, 2022-12-09)"
   sodipodi:docname="example_logo.svg"
   inkscape:export-filename="example_favicon.svg"
   inkscape:export-xdpi="96"
   inkscape:export-ydpi="96"
   xmlns:inkscape="http://www.inkscape.org/namespaces/inkscape"
   xmlns:sodipodi="http://sodipodi.sourceforge.net/DTD/sodipodi-0.dtd"
   xmlns:xlink="http://www.w3.org/1999/xlink"
   xmlns="http://www.w3.org/2000/svg"
   xmlns:svg="http://www.w3.org/2000/svg">
  <sodipodi:namedview
     id="namedview7"
     pagecolor="#ffffff"
     bordercolor="#000000"
     borderopacity="0.25"
     inkscape:showpageshadow="2"
     inkscape:pageopacity="0.0"
     inkscape:pagecheckerboard="0"
     inkscape:deskcolor="#d1d1d1"
     inkscape:document-units="mm"
     showgrid="false"
     inkscape:zoom="0.5946522"
     inkscape:cx="7.5674487"
     inkscape:cy="123.60166"
     inkscape:window-width="1368"
     inkscape:window-height="850"
     inkscape:window-x="-6"
     inkscape:window-y="-6"
     inkscape:window-maximized="1"
     inkscape:current-layer="layer1" />
  <defs
     id="defs2">
    <linearGradient
       inkscape:collect="always"
       id="linearGradient4015">
      <stop
         style="stop-color:#ff0000;stop-opacity:1;"
         offset="0"
         id="stop4011" />
      <stop
         style="stop-color:#000000;stop-opacity:1;"
         offset="0.48029557"
         id="stop4013" />
    </linearGradient>
    <linearGradient
       inkscape:collect="always"
       id="linearGradient1779">
      <stop
         style="stop-color:#ff0000;stop-opacity:1;"
         offset="0"
         id="stop1775" />
      <stop
         style="stop-color:#000000;stop-opacity:1;"
         offset="0.48033708"
         id="stop1777" />
    </linearGradient>
    <linearGradient
       inkscape:collect="always"
       id="linearGradient1771">
      <stop
         style="stop-color:#e3e3e3;stop-opacity:0.9094488;"
         offset="0"
         id="stop1767" />
      <stop
         style="stop-color:#ff0000;stop-opacity:1;"
         offset="1"
         id="stop1769" />
    </linearGradient>
    <linearGradient
       inkscape:collect="always"
       xlink:href="#linearGradient1771"
       id="linearGradient1773"
       x1="103.57542"
       y1="210.43567"
       x2="166.34184"
       y2="210.43567"
       gradientUnits="userSpaceOnUse" />
    <linearGradient
       inkscape:collect="always"
       xlink:href="#linearGradient1779"
       id="linearGradient1781"
       x1="99.042938"
       y1="210.02029"
       x2="170.87433"
       y2="210.02029"
       gradientUnits="userSpaceOnUse" />
    <linearGradient
       inkscape:collect="always"
       xlink:href="#linearGradient4015"
       id="linearGradient4017"
       x1="119.96414"
       y1="221.18835"
       x2="149.95312"
       y2="221.18835"
       gradientUnits="userSpaceOnUse" />
  </defs>
  <g
     inkscape:label="Layer 1"
     inkscape:groupmode="layer"
     id="layer1"
     transform="translate(-99.042942,-179.13111)">
    <ellipse
       style="fill:url(#linearGradient1773);fill-opacity:1;stroke-width:1.046;stroke-linecap:round;stroke-linejoin:round"
       id="path1763"
       cx="134.95863"
       cy="210.43567"
       rx="31.383211"
       ry="31.304558" />
    <g
       aria-label="Example"
       id="text1655"
       style="font-weight:bold;font-size:19.7556px;font-family:'Meta SC Offc Pro';-inkscape-font-specification:'Meta SC Offc Pro Bold';text-orientation:upright;fill:url(#linearGradient1781);stroke-width:1.046;stroke-linecap:round;stroke-linejoin:round">
      <path
         d="m 99.042942,216.88536 v -13.73014 h 7.823218 l -0.3556,2.25214 h -4.66232 v 3.18065 h 3.89185 v 2.25214 h -3.89185 v 3.67454 h 5.19572 v 2.37067 z"
         id="path6218" />
      <path
         d="m 114.61034,216.88536 -1.87678,-3.57576 -1.95581,3.57576 h -3.43747 l 3.83258,-5.78839 -3.23991,-5.03768 h 3.31894 l 1.40264,2.70652 1.44216,-2.70652 h 3.25968 l -3.14114,4.87964 3.71405,5.94643 z"
         id="path6220" />
      <path
         d="m 125.31789,216.88536 -0.82974,-2.29165 h -3.2004 l -0.77047,2.29165 h -2.84481 l 3.93136,-10.86558 h 2.86457 l 3.67454,10.86558 z m -2.39043,-8.49491 -1.0668,4.20795 h 2.07434 z"
         id="path6222" />
      <path
         d="m 139.36414,216.88536 -0.33585,-5.59083 q -0.0197,-0.19756 -0.0395,-0.53341 -0.0197,-0.3556 -0.0395,-0.69144 0,-0.33585 -0.0198,-0.59267 0,-0.25682 0,-0.29633 l -2.19288,7.70468 h -2.3114 l -1.48167,-5.4723 q -0.0593,-0.1778 -0.13829,-0.55316 -0.079,-0.39511 -0.1778,-0.79022 -0.079,-0.41487 -0.15805,-0.75071 -0.0593,-0.33585 -0.079,-0.39512 0,0.0198 -0.0198,0.31609 0,0.29634 -0.0198,0.71121 -0.0198,0.39511 -0.0395,0.80997 0,0.41487 -0.0198,0.65194 l -0.29633,5.4723 h -2.72627 l 1.16558,-10.82607 h 3.41772 l 1.36313,5.23524 q 0.0593,0.25682 0.13829,0.59266 0.079,0.33585 0.13829,0.65194 0.0593,0.31609 0.0988,0.57291 0.0395,0.23707 0.0593,0.29634 0,-0.0395 0.0395,-0.29634 0.0593,-0.27658 0.13829,-0.61242 0.079,-0.3556 0.15804,-0.7112 0.079,-0.3556 0.13829,-0.59267 l 1.4224,-5.13646 h 3.35846 l 1.10631,10.82607 z"
         id="path6224" />
      <path
         d="m 153.23258,209.49677 q 0,0.57291 -0.1778,1.12607 -0.15805,0.5334 -0.47414,0.98778 -0.29633,0.45437 -0.73096,0.79022 -0.43462,0.31609 -0.96802,0.45438 -0.29633,0.079 -0.5334,0.11853 -0.23707,0.0395 -0.49389,0.0593 -0.25682,0.0198 -0.55316,0.0395 -0.27658,0 -0.65193,0 h -1.08656 v 3.81283 h -2.68676 v -10.82607 h 3.06212 q 0.84949,0 1.40264,0.0395 0.55316,0.0395 0.92852,0.11854 0.39511,0.079 0.65193,0.1778 0.27658,0.079 0.5334,0.19755 0.86925,0.39512 1.32363,1.18534 0.45438,0.77047 0.45438,1.71874 z m -2.90408,0 q 0,-0.59267 -0.3556,-1.00754 -0.33584,-0.41487 -1.16558,-0.41487 h -1.2446 v 2.92383 h 1.22485 q 0.82973,0 1.18533,-0.29633 0.3556,-0.31609 0.3556,-1.20509 z"
         id="path6226" />
      <path
         d="m 161.52994,216.88536 h -6.32179 v -10.82607 h 2.72628 v 8.65295 h 4.16843 z"
         id="path6228" />
      <path
         d="m 163.88085,216.88536 v -10.82607 h 6.87495 l -0.39512,2.0941 h -3.77331 v 2.01507 h 3.16089 v 2.11385 h -3.16089 v 2.41018 h 4.28696 v 2.19287 z"
         id="path6230" />
    </g>
    <g
       aria-label="Samuel Homberg"
       id="text1659"
       style="font-weight:bold;font-size:3.88056px;font-family:'Meta SC Offc Pro';-inkscape-font-specification:'Meta SC Offc Pro Bold';text-orientation:upright;fill:url(#linearGradient4017);stroke-width:1.046;stroke-linecap:round;stroke-linejoin:round">
      <path
         d="m 121.99756,221.69865 q 0,0.20567 -0.0815,0.37253 -0.0776,0.16687 -0.22507,0.28716 -0.14358,0.1203 -0.34925,0.18627 -0.20567,0.0621 -0.4579,0.0621 -0.23284,0 -0.47343,-0.0621 -0.2406,-0.066 -0.44627,-0.18238 l 0.20179,-0.42299 q 0.19015,0.1009 0.36089,0.15911 0.17463,0.0582 0.3803,0.0582 0.47343,0 0.47343,-0.36866 0,-0.25223 -0.35313,-0.34925 l -0.29881,-0.0815 q -0.20179,-0.0543 -0.32984,-0.13582 -0.12806,-0.0815 -0.20179,-0.20567 -0.11254,-0.18239 -0.11254,-0.41134 0,-0.18626 0.0699,-0.33761 0.0699,-0.15522 0.19791,-0.26387 0.12806,-0.11254 0.30656,-0.17075 0.17851,-0.0621 0.39194,-0.0621 0.24836,0 0.48507,0.0737 0.23671,0.0699 0.41522,0.19791 l -0.25612,0.38806 q -0.18626,-0.11254 -0.33373,-0.15911 -0.14358,-0.0466 -0.29492,-0.0466 -0.16686,0 -0.27164,0.0892 -0.10477,0.0854 -0.10477,0.22119 0,0.10478 0.0621,0.16687 0.066,0.0582 0.23671,0.10477 l 0.32597,0.0893 q 0.33373,0.0893 0.50835,0.29493 0.17463,0.20567 0.17463,0.50835 z"
         id="path6233" />
      <path
         d="m 123.60411,222.54849 -0.16298,-0.45014 h -0.62865 l -0.15135,0.45014 h -0.5588 l 0.77224,-2.13431 h 0.56268 l 0.72178,2.13431 z m -0.46955,-1.66864 -0.20955,0.82656 h 0.40746 z"
         id="path6235" />
      <path
         d="m 126.36319,222.54849 -0.066,-1.0982 q -0.004,-0.0388 -0.008,-0.10477 -0.004,-0.0699 -0.008,-0.13582 0,-0.066 -0.004,-0.11642 0,-0.0504 0,-0.0582 l -0.43074,1.51342 h -0.45403 l -0.29104,-1.07491 q -0.0116,-0.0349 -0.0272,-0.10866 -0.0155,-0.0776 -0.0349,-0.15522 -0.0155,-0.0815 -0.031,-0.14746 -0.0116,-0.066 -0.0155,-0.0776 0,0.004 -0.004,0.0621 0,0.0582 -0.004,0.1397 -0.004,0.0776 -0.008,0.1591 0,0.0815 -0.004,0.12806 l -0.0582,1.07491 h -0.53551 l 0.22895,-2.12654 h 0.67134 l 0.26776,1.02834 q 0.0116,0.0505 0.0272,0.11642 0.0155,0.066 0.0272,0.12806 0.0117,0.0621 0.0194,0.11254 0.008,0.0466 0.0116,0.0582 0,-0.008 0.008,-0.0582 0.0116,-0.0543 0.0272,-0.1203 0.0155,-0.0698 0.031,-0.1397 0.0155,-0.0699 0.0272,-0.11642 l 0.2794,-1.00894 h 0.6597 l 0.21731,2.12654 z"
         id="path6237" />
      <path
         d="m 129.11063,221.83447 q 0,0.11642 -0.0116,0.20179 -0.0116,0.0815 -0.0349,0.14358 -0.0194,0.0582 -0.0543,0.10477 -0.031,0.0427 -0.0776,0.0854 -0.0892,0.0854 -0.25223,0.15134 -0.15911,0.066 -0.41134,0.066 -0.26776,0 -0.46567,-0.066 -0.19403,-0.066 -0.2988,-0.20179 -0.0699,-0.0892 -0.0931,-0.19403 -0.0194,-0.10865 -0.0194,-0.25612 v -1.44744 h 0.53552 v 1.38536 q 0,0.097 0.008,0.15134 0.008,0.0543 0.0388,0.0931 0.0854,0.11642 0.27552,0.11642 0.0815,0 0.14358,-0.0233 0.0621,-0.0272 0.10478,-0.0621 0.0155,-0.0155 0.0272,-0.0349 0.0155,-0.0194 0.0272,-0.0543 0.0116,-0.0349 0.0155,-0.0892 0.008,-0.0582 0.008,-0.1397 v -1.34267 h 0.53552 z"
         id="path6239" />
      <path
         d="m 129.76256,222.54849 v -2.12654 h 1.35043 l -0.0776,0.41133 h -0.74119 v 0.39582 h 0.62089 v 0.41522 h -0.62089 v 0.47343 h 0.84209 v 0.43074 z"
         id="path6241" />
      <path
         d="m 132.89805,222.54849 h -1.24177 v -2.12654 h 0.53551 v 1.69968 h 0.8188 z"
         id="path6243" />
      <path
         d="m 135.4243,222.54849 v -1.20297 h -0.77611 v 1.20297 h -0.5394 v -2.69699 h 0.5394 v 1.04775 h 0.77611 v -1.04775 h 0.55104 v 2.69699 z"
         id="path6245" />
      <path
         d="m 138.54039,221.46582 q 0,0.24835 -0.066,0.45402 -0.0621,0.20567 -0.18627,0.35313 -0.12417,0.14358 -0.31432,0.22508 -0.19015,0.0815 -0.4385,0.0815 -0.25224,0 -0.45015,-0.0776 -0.19791,-0.0815 -0.33373,-0.22508 -0.13194,-0.14358 -0.20179,-0.34149 -0.0699,-0.1979 -0.0699,-0.43462 0,-0.26 0.0699,-0.46567 0.0737,-0.20567 0.20567,-0.34537 0.13582,-0.14358 0.32597,-0.21731 0.19403,-0.0737 0.43462,-0.0737 0.22507,0 0.41134,0.066 0.19015,0.066 0.32597,0.20179 0.13582,0.13194 0.20955,0.33373 0.0776,0.19791 0.0776,0.46567 z m -0.60537,0 q 0,-0.16299 -0.0194,-0.29105 -0.0194,-0.12805 -0.0699,-0.21731 -0.0504,-0.0892 -0.13194,-0.13582 -0.0815,-0.0466 -0.20567,-0.0466 -0.23671,0 -0.33761,0.19014 -0.10089,0.18627 -0.10089,0.55104 0,0.20179 0.0272,0.33373 0.0272,0.13194 0.0815,0.21343 0.0543,0.0776 0.13582,0.11254 0.0815,0.031 0.19403,0.031 0.10478,0 0.18239,-0.0349 0.0815,-0.0388 0.13582,-0.12418 0.0543,-0.0854 0.0815,-0.22895 0.0272,-0.14358 0.0272,-0.35313 z"
         id="path6247" />
      <path
         d="m 140.9153,222.54849 -0.066,-1.0982 q -0.004,-0.0388 -0.008,-0.10477 -0.004,-0.0699 -0.008,-0.13582 0,-0.066 -0.004,-0.11642 0,-0.0504 0,-0.0582 l -0.43074,1.51342 h -0.45403 l -0.29104,-1.07491 q -0.0116,-0.0349 -0.0272,-0.10866 -0.0155,-0.0776 -0.0349,-0.15522 -0.0155,-0.0815 -0.031,-0.14746 -0.0116,-0.066 -0.0155,-0.0776 0,0.004 -0.004,0.0621 0,0.0582 -0.004,0.1397 -0.004,0.0776 -0.008,0.1591 0,0.0815 -0.004,0.12806 l -0.0582,1.07491 h -0.53552 l 0.22896,-2.12654 h 0.67133 l 0.26776,1.02834 q 0.0116,0.0505 0.0272,0.11642 0.0155,0.066 0.0272,0.12806 0.0116,0.0621 0.0194,0.11254 0.008,0.0466 0.0116,0.0582 0,-0.008 0.008,-0.0582 0.0116,-0.0543 0.0272,-0.1203 0.0155,-0.0698 0.031,-0.1397 0.0155,-0.0699 0.0272,-0.11642 l 0.2794,-1.00894 h 0.65969 l 0.21732,2.12654 z"
         id="path6249" />
      <path
         d="m 143.67826,221.94701 q 0,0.13193 -0.0466,0.24447 -0.0427,0.10866 -0.1397,0.19015 -0.097,0.0776 -0.25223,0.12418 -0.15523,0.0427 -0.37642,0.0427 h -0.86536 v -2.12654 h 0.93133 q 0.30268,0 0.48119,0.14746 0.18239,0.14358 0.18239,0.38805 0,0.16299 -0.0815,0.28328 -0.0815,0.1203 -0.22507,0.17851 0.19791,0.0815 0.29493,0.20955 0.097,0.12806 0.097,0.31821 z m -0.59761,-0.0582 q 0,-0.23284 -0.2988,-0.23284 h -0.25224 v 0.48507 h 0.25224 q 0.14358,0 0.22119,-0.0621 0.0776,-0.0621 0.0776,-0.19014 z m -0.031,-0.84596 q 0,-0.0388 -0.0116,-0.0737 -0.008,-0.0388 -0.0388,-0.066 -0.0272,-0.0311 -0.0815,-0.0466 -0.0543,-0.0194 -0.1397,-0.0194 h -0.24836 v 0.40357 h 0.22508 q 0.17462,0 0.23283,-0.0466 0.0621,-0.0504 0.0621,-0.15134 z"
         id="path6251" />
      <path
         d="m 144.18273,222.54849 v -2.12654 h 1.35044 l -0.0776,0.41133 h -0.74119 v 0.39582 h 0.62089 v 0.41522 h -0.62089 v 0.47343 h 0.84208 v 0.43074 z"
         id="path6253" />
      <path
         d="m 147.21733,222.54849 q -0.0349,-0.0543 -0.0621,-0.0931 -0.0272,-0.0427 -0.0543,-0.0815 -0.0233,-0.0388 -0.0505,-0.0815 -0.0233,-0.0427 -0.0582,-0.1009 -0.097,-0.16298 -0.1591,-0.26 -0.0582,-0.097 -0.097,-0.14746 -0.0388,-0.0543 -0.0621,-0.0699 -0.0233,-0.0194 -0.0466,-0.0194 h -0.0349 v 0.85372 h -0.51611 v -2.12654 h 0.82268 q 0.17462,0 0.33761,0.0388 0.16298,0.0349 0.26775,0.1397 0.10478,0.10478 0.14747,0.22119 0.0427,0.11642 0.0427,0.24836 0,0.11254 -0.0388,0.21343 -0.0349,0.097 -0.097,0.17463 -0.0582,0.0776 -0.13582,0.13193 -0.0776,0.0505 -0.1591,0.066 0.0349,0.0388 0.0892,0.11642 0.0543,0.0737 0.11254,0.16686 0.0621,0.0931 0.12418,0.19015 0.0621,0.097 0.11641,0.18239 0.0543,0.0854 0.0893,0.15134 0.0388,0.0621 0.0543,0.0854 z M 147.1436,221.07 q 0,-0.12806 -0.0776,-0.19015 -0.0776,-0.066 -0.29492,-0.066 h -0.18239 v 0.50059 h 0.17463 q 0.21731,0 0.2988,-0.0582 0.0815,-0.0582 0.0815,-0.18627 z"
         id="path6255" />
      <path
         d="m 149.95312,222.36999 q -0.20179,0.10089 -0.39969,0.15134 -0.19791,0.0466 -0.41522,0.0466 -0.2794,0 -0.47731,-0.0815 -0.19403,-0.0815 -0.33761,-0.25611 -0.12418,-0.14746 -0.18239,-0.31821 -0.0582,-0.17074 -0.0582,-0.40358 0,-0.25611 0.0776,-0.46178 0.0776,-0.20567 0.21732,-0.35314 0.14358,-0.14746 0.34149,-0.22507 0.20178,-0.0815 0.44626,-0.0815 0.21731,0 0.41522,0.066 0.20179,0.0621 0.36089,0.18239 l -0.28328,0.31432 q -0.22507,-0.16686 -0.48895,-0.16686 -0.1397,0 -0.23671,0.0427 -0.0931,0.0427 -0.15135,0.13194 -0.0543,0.0893 -0.0815,0.23284 -0.0233,0.14358 -0.0233,0.34537 0,0.1979 0.031,0.32596 0.031,0.12806 0.0931,0.20567 0.0621,0.0737 0.15134,0.10478 0.0931,0.031 0.20955,0.031 0.066,0 0.1203,-0.0116 0.0543,-0.0155 0.10865,-0.0349 v -0.41134 h -0.30656 l -0.0776,-0.40358 h 0.94685 z"
         id="path6257" />
    </g>
  </g>
</svg>
